<svg xmlns="http://www.w3.org/2000/svg" viewBox="0 0 320 440" role="img" aria-label="Electrical system card">
  <defs>
    <linearGradient id="bg" x1="0" y1="0" x2="0" y2="1"><stop offset="0" stop-color="#d7c7a4"/><stop offset="1" stop-color="#c6b491"/></linearGradient>
    <linearGradient id="art" x1="0" y1="0" x2="0" y2="1"><stop offset="0" stop-color="#2b3a4d"/><stop offset="1" stop-color="#1d2733"/></linearGradient>
  </defs>
  <rect x="6" y="6" width="308" height="428" rx="22" fill="#161e28"/>
  <rect x="14" y="14" width="292" height="412" rx="17" fill="url(#bg)"/>
  <rect x="30" y="62" width="260" height="226" rx="12" fill="url(#art)" stroke="#0e151d" stroke-width="2"/>
  <g transform="translate(160,150)" opacity="0.6">
    <circle r="46" fill="none" stroke="#8295ab" stroke-width="7"/>
    <g stroke="#8295ab" stroke-width="9" stroke-linecap="round">
      <line x1="0" y1="-62" x2="0" y2="-46"/><line x1="0" y1="46" x2="0" y2="62"/>
      <line x1="-62" y1="0" x2="-46" y2="0"/><line x1="46" y1="0" x2="62" y2="0"/>
      <line x1="-44" y1="-44" x2="-33" y2="-33"/><line x1="33" y1="33" x2="44" y2="44"/>
      <line x1="44" y1="-44" x2="33" y2="-33"/><line x1="-33" y1="33" x2="-44" y2="44"/>
    </g>
    <circle r="16" fill="#8295ab"/>
  </g>
  <text x="160" y="246" font-family="Arial,sans-serif" font-size="11" font-weight="700" fill="#9fb0c4" text-anchor="middle" letter-spacing="1.5">SYSTEM</text>
  <text x="160" y="266" font-family="Arial,sans-serif" font-size="9.5" fill="#7f93a8" text-anchor="middle">replace assets/categories/sys-electrical.svg</text>
  <g transform="translate(40,40)"><rect width="54" height="32" rx="7" fill="#d11f2a"/><text x="27" y="23" font-family="Arial,sans-serif" font-size="17" font-weight="900" fill="#fff" text-anchor="middle">365</text></g>
  <text x="280" y="60" font-family="Arial,sans-serif" font-size="10.5" font-weight="700" fill="#6b6344" text-anchor="end" letter-spacing="1">SYSTEM CARD</text>
  <rect x="30" y="312" width="260" height="70" rx="10" fill="#1d2733" stroke="#0e151d" stroke-width="2"/>
  <text x="160" y="355.5" font-family="Georgia,'Times New Roman',serif" font-size="24" font-weight="700" fill="#fff" text-anchor="middle" letter-spacing=".5">ELECTRICAL</text>
  <text x="160" y="408" font-family="Arial,sans-serif" font-size="9.5" fill="#7c7458" text-anchor="middle" letter-spacing="1.5">365 MOTOR SALES · ENGINE TRAINING</text>
</svg>